HIERARCHY
ROOT Hips
{
	OFFSET -3.958830 18.904000 13.208200
	CHANNELS 6 Xposition Yposition Zposition Zrotation Yrotation Xrotation 
	JOINT LHipJoint
	{
		OFFSET 0.000000 0.000000 0.000000
		CHANNELS 3 Zrotation Yrotation Xrotation
		JOINT LeftUpLeg
		{
			OFFSET 1.800000 -1.400000 0.085000
			CHANNELS 3 Zrotation Yrotation Xrotation
			JOINT LeftLeg
			{
				OFFSET 2.215000 -6.000000 0.000000
				CHANNELS 3 Zrotation Yrotation Xrotation
				JOINT LeftFoot
				{
					OFFSET 2.500000 -6.900000 0.000000
					CHANNELS 3 Zrotation Yrotation Xrotation
					JOINT LeftToeBase
					{
						OFFSET 0.200000 -0.500000 1.950000
						CHANNELS 3 Zrotation Yrotation Xrotation
						End Site
						{
							OFFSET 0.000000 0.000000 0.000000
						}
					}
				}
			}
		}
	}
	JOINT RHipJoint
	{
		OFFSET 0.000000 0.000000 0.000000
		CHANNELS 3 Zrotation Yrotation Xrotation
		JOINT RightUpLeg
		{
			OFFSET -1.800000 -1.400000 0.085000
			CHANNELS 3 Zrotation Yrotation Xrotation
			JOINT RightLeg
			{
				OFFSET -2.215000 -6.000000 0.000000
				CHANNELS 3 Zrotation Yrotation Xrotation
				JOINT RightFoot
				{
					OFFSET -2.500000 -6.900000 0.000000
					CHANNELS 3 Zrotation Yrotation Xrotation
					JOINT RightToeBase
					{
						OFFSET -0.200000 -0.500000 1.950000
						CHANNELS 3 Zrotation Yrotation Xrotation
						End Site
						{
							OFFSET 0.000000 0.000000 0.000000
						}
					}
				}
			}
		}
	}
	JOINT LowerBack
	{
		OFFSET 0.000000 0.000000 0.000000
		CHANNELS 3 Zrotation Yrotation Xrotation
		JOINT Spine
		{
			OFFSET -0.087000 1.940000 -0.288900
			CHANNELS 3 Zrotation Yrotation Xrotation
			JOINT Spine1
			{
				OFFSET 0.000000 1.950000 0.060000
				CHANNELS 3 Zrotation Yrotation Xrotation
				JOINT Neck
				{
					OFFSET 0.000000 0.000000 0.000000
					CHANNELS 3 Zrotation Yrotation Xrotation
					JOINT Neck1
					{
						OFFSET 0.000000 1.600000 0.340000
						CHANNELS 3 Zrotation Yrotation Xrotation
						JOINT Head
						{
							OFFSET 0.000000 1.667000 -0.240000
							CHANNELS 3 Zrotation Yrotation Xrotation
							End Site
							{
								OFFSET 0.000000 0.000000 0.000000
							}
						}
					}
				}
				JOINT LeftShoulder
				{
					OFFSET 0.000000 0.000000 0.000000
					CHANNELS 3 Zrotation Yrotation Xrotation
					JOINT LeftArm
					{
						OFFSET 2.700000 1.550000 -0.730000
						CHANNELS 3 Zrotation Yrotation Xrotation
						JOINT LeftForeArm
						{
							OFFSET 5.450000 0.000000 0.000000
							CHANNELS 3 Zrotation Yrotation Xrotation
							JOINT LeftHand
							{
								OFFSET 3.450000 0.000000 0.000000
								CHANNELS 3 Zrotation Yrotation Xrotation
								JOINT LeftHandIndex1
								{
									OFFSET 0.750000 0.000000 0.000000
									CHANNELS 3 Zrotation Yrotation Xrotation
									End Site
									{
										OFFSET 0.000000 0.000000 0.000000
									}
								}
							}
						}
					}
				}
				JOINT RightShoulder
				{
					OFFSET 0.000000 0.000000 0.000000
					CHANNELS 3 Zrotation Yrotation Xrotation
					JOINT RightArm
					{
						OFFSET -2.700000 1.550000 -0.730000
						CHANNELS 3 Zrotation Yrotation Xrotation
						JOINT RightForeArm
						{
							OFFSET -5.450000 0.000000 0.000000
							CHANNELS 3 Zrotation Yrotation Xrotation
							JOINT RightHand
							{
								OFFSET -3.450000 0.000000 0.000000
								CHANNELS 3 Zrotation Yrotation Xrotation
								JOINT RightHandIndex1
								{
									OFFSET -0.750000 0.000000 0.000000
									CHANNELS 3 Zrotation Yrotation Xrotation
									End Site
									{
										OFFSET 0.000000 0.000000 0.000000
									}
								}
							}
						}
					}
				}
			}
		}
	}
}
MOTION
Frames: 13
Frame Time: 0.016667
-1.670250 17.097270 -1.957810 -3.582101 9.930821 -2.102002 -14.940523 11.870669 3.643650 8.358428 -2.819177 -28.068611 -3.545212 2.171015 -2.878625 -1.142541 3.016997 3.701893 0.610790 0.277520 0.261930 18.631884 -11.067762 2.682787 1.739061 -1.497345 -0.851415 4.396685 -5.508400 15.205243 -0.469116 -4.612932 2.984810 0.459530 0.576610 0.185170 -4.526639 -0.040879 -7.753054 12.107804 1.202361 13.807989 -7.063161 4.110626 16.379928 1.011444 -3.238519 -8.008711 -7.462564 -0.419873 34.431273 3.609110 -6.333070 -11.272790 -10.714580 -24.475488 1.230043 -13.917574 -35.379677 -0.201783 35.111019 -44.315150 -14.522805 -3.785035 2.560423 0.430640 0.302490 -0.266730 0.344490 8.509618 27.708956 5.883234 12.724715 28.946636 -6.473888 -39.622874 54.218780 -18.881472 1.309671 -1.183704 -0.378610 0.547230 0.045050 -0.165790 
-1.670510 17.094640 -1.954510 -3.781903 10.057428 -2.222692 -14.922919 11.926654 3.570491 8.459230 -2.706515 -28.217684 -3.379106 2.344603 -1.399342 -1.140360 2.978959 3.706376 0.598430 0.272170 0.241690 18.639799 -11.117539 2.708983 1.869812 -1.463662 -1.008934 4.635904 -5.620759 15.660159 -0.467274 -4.650352 2.967970 0.451820 0.583650 0.192130 -4.572742 0.006479 -7.722715 12.508181 1.102740 13.829098 -7.340351 4.062784 16.405507 1.131075 -3.168536 -8.066982 -7.291144 -0.413956 34.345393 3.750520 -6.378260 -10.934930 -10.989650 -24.519740 1.330801 -14.212091 -35.229390 -0.312374 35.916567 -44.733391 -15.024003 -3.789339 2.567199 0.414060 0.309010 -0.272220 0.343250 8.547396 27.628664 5.953011 13.018802 28.573188 -6.644879 -39.867864 55.548550 -19.483847 1.296802 -1.169343 -0.368120 0.535000 0.052470 -0.154710 
-1.665530 17.096940 -1.942330 -3.574393 10.314857 -2.461426 -14.913997 12.079112 3.418162 7.913183 -2.675771 -28.416715 -2.868364 2.664782 2.018031 -1.189167 2.899731 3.708371 0.616030 0.288820 0.241280 18.627399 -11.227016 2.726380 1.396351 -1.405831 -1.046903 4.808803 -5.781945 16.311498 -0.473806 -4.723821 2.924483 0.467640 0.575600 0.209870 -4.588991 0.031368 -7.611759 12.382458 1.118191 13.794028 -7.600633 4.134950 16.757535 1.234861 -3.216931 -7.924487 -7.316383 -0.376954 34.159530 3.925560 -6.490430 -11.272810 -10.890528 -23.871260 1.280928 -16.474299 -35.793404 0.163526 38.250412 -45.445183 -16.554851 -3.780891 2.561495 0.416120 0.307850 -0.270500 0.340450 8.259739 27.004294 5.896754 14.644465 28.444565 -6.701407 -41.077777 57.617992 -21.041795 1.239540 -1.125506 -0.358460 0.518760 0.059970 -0.156590 
-1.664430 17.132640 -1.925690 -3.519911 10.083162 -2.881203 -14.887221 12.231123 3.258484 7.891330 -2.488805 -27.962647 -2.881508 3.131550 5.719867 -1.183762 2.940370 3.674158 0.628560 0.313890 0.250100 18.624653 -11.357975 2.769595 1.271936 -1.371351 -1.043884 4.414467 -5.746449 16.740474 -0.488706 -4.715464 2.925813 0.470770 0.553260 0.201460 -4.635516 0.126933 -7.533701 12.625011 1.274672 14.195983 -8.171650 4.505607 17.250987 1.596196 -3.302666 -8.091348 -7.455227 -0.283966 34.384888 4.340110 -6.440040 -12.181920 -11.492665 -23.490120 1.530317 -19.497016 -35.734916 0.218651 41.600262 -48.064803 -19.322324 -3.723864 2.483522 0.432600 0.283700 -0.245520 0.341080 8.148727 26.728676 6.200452 16.695054 27.414608 -7.539118 -43.317454 61.598361 -24.158860 1.170182 -0.990033 -0.349260 0.524400 0.048070 -0.154630 
-1.662780 17.187440 -1.899390 -3.475412 10.258237 -3.191001 -14.880054 12.418862 3.142917 7.727473 -2.437557 -27.747046 -2.758691 3.678683 10.099478 -1.160608 3.110041 3.586041 0.628830 0.300570 0.250390 18.601052 -11.433117 2.804044 1.253325 -1.220096 -1.392182 4.369361 -5.833269 17.620679 -0.491900 -4.719267 2.917651 0.450160 0.527740 0.208720 -4.633091 0.061863 -7.482022 12.838265 1.300681 14.846000 -8.428634 4.739377 17.101379 1.761316 -4.011553 -8.228666 -8.786803 -0.197915 34.221630 4.629950 -6.777810 -12.794220 -13.202112 -22.710497 1.883812 -23.448485 -35.250727 0.431485 44.546535 -52.716589 -22.883310 -3.652865 2.398572 0.454910 0.258010 -0.231420 0.335450 9.422013 26.521820 6.416142 17.999076 25.330325 -8.789793 -42.670421 68.723916 -27.069736 1.111556 -0.850272 -0.337070 0.502200 0.049290 -0.159020 
-1.662110 17.262940 -1.880820 -3.232277 10.786156 -3.745432 -14.886049 12.584534 3.086175 7.622089 -2.486466 -27.115340 -3.212087 4.357656 14.222116 -1.070795 3.383290 3.464808 0.649120 0.325020 0.293400 18.559989 -11.492650 2.826925 1.059472 -1.126125 -1.528420 4.397325 -5.976227 18.577536 -0.532839 -4.701841 2.924724 0.423990 0.458320 0.191360 -4.592726 -0.022929 -7.493518 12.481047 1.127606 16.143658 -8.672343 4.736366 16.826258 1.988501 -4.187690 -8.449997 -9.282815 -0.231589 34.895320 5.172090 -6.674650 -14.536210 -14.801075 -21.962682 2.201749 -26.325279 -33.610050 -0.282108 44.943163 -59.385422 -26.059471 -3.518594 2.281596 0.498930 0.191400 -0.168590 0.333740 10.540553 26.017976 6.797194 20.928961 23.565603 -9.943086 -41.279765 75.911133 -30.617059 1.120835 -0.695337 -0.310300 0.491940 0.006660 -0.163650 
-1.649210 17.321650 -1.861050 -3.173169 11.303372 -3.780626 -14.899003 12.692060 3.109624 7.534162 -2.704541 -27.053383 -3.703975 5.138186 18.436321 -0.938880 3.795760 3.304562 0.634730 0.310500 0.289040 18.524879 -11.505763 2.826702 1.409522 -0.877259 -2.446770 4.109869 -6.035357 20.196337 -0.534490 -4.678893 2.942674 0.378940 0.421250 0.172560 -4.548273 -0.118842 -7.527509 12.306323 0.949925 16.875513 -8.781859 4.607156 16.098141 2.125277 -4.308056 -8.856186 -9.682048 -0.264807 35.439677 5.602740 -6.780760 -14.351720 -15.897082 -20.599381 2.583218 -29.905280 -31.413295 -0.849156 42.979038 -66.937388 -28.718843 -3.410472 2.245499 0.505120 0.153220 -0.147440 0.341450 11.338859 24.839176 7.289070 24.308402 21.773800 -9.949919 -33.676817 82.883278 -30.313284 1.241210 -0.859545 -0.288040 0.460910 -0.024540 -0.155280 
-1.645110 17.372650 -1.818040 -2.622618 10.792637 -3.905920 -14.939142 12.884142 3.114408 7.439002 -2.699881 -25.803139 -4.460536 6.005924 21.721063 -0.814182 4.294533 3.120095 0.599790 0.254890 0.300440 18.443913 -11.528281 2.804931 1.421749 -0.494756 -3.282005 3.104500 -5.955363 22.367324 -0.540669 -4.669164 2.955726 0.310500 0.384680 0.170100 -4.370733 -0.323917 -7.549147 10.980817 1.420010 17.735597 -8.408314 5.085501 15.434843 2.192671 -4.301640 -9.502312 -10.029685 -0.345847 36.449041 5.463680 -6.581620 -14.731200 -17.121740 -18.959880 2.695991 -32.858677 -28.644185 -1.602065 36.442605 -74.349967 -28.730199 -3.378010 2.332980 0.547210 0.119570 -0.113070 0.325990 12.418364 23.492664 8.427920 27.602493 20.208546 -7.804792 -2.537247 87.703668 -8.112607 1.487513 -1.566041 -0.280640 0.439840 -0.031580 -0.168060 
-1.628150 17.411070 -1.775730 -2.815115 11.429872 -4.152537 -14.945382 12.988871 3.123805 7.681846 -2.719961 -25.082452 -4.891253 6.838626 25.008433 -0.678842 4.822913 2.908252 0.552270 0.198030 0.290290 18.420277 -11.502859 2.820265 2.101380 -0.105616 -4.171717 2.701643 -6.067353 24.778721 -0.562802 -4.740666 2.920113 0.244410 0.342160 0.165400 -4.353086 -0.452674 -7.597856 11.345710 1.091790 18.499558 -8.776910 4.925244 14.899684 2.406155 -4.596600 -10.359890 -10.949971 -0.313534 37.234258 5.563840 -6.651050 -14.958010 -18.517389 -17.296876 3.033686 -36.139830 -25.661453 -1.826559 21.655744 -80.716397 -21.784463 -3.409925 2.682341 0.574150 0.079270 -0.084750 0.296210 13.389282 21.903109 9.655697 30.484771 19.143598 -3.061411 50.670996 89.283173 37.624563 1.959138 -1.655933 -0.265690 0.405900 -0.021790 -0.172330 
-1.605760 17.431250 -1.758440 -3.226603 12.590609 -4.053078 -14.940142 13.051485 3.141876 7.737853 -2.841530 -24.722983 -4.922393 7.328715 27.258132 -0.590353 5.202551 2.789891 0.496310 0.105970 0.280810 18.415918 -11.449244 2.848853 2.764185 0.591455 -5.925814 3.071578 -6.528179 27.997245 -0.594003 -4.927290 2.867583 0.172270 0.338420 0.148620 -4.395181 -0.563252 -7.668968 12.202563 0.328143 19.130811 -9.701900 4.302725 13.633552 2.652799 -4.701201 -10.999351 -11.509330 -0.012569 38.103672 5.663790 -6.533270 -14.117390 -20.036493 -15.945453 3.774892 -38.116961 -21.873035 -1.451473 -11.958603 -84.566301 4.360267 -3.496754 3.106888 0.617250 0.059370 -0.081300 0.286310 14.347224 20.392309 10.023835 34.407490 17.593430 0.028520 75.839793 86.807912 53.823539 3.024747 0.139243 -0.289910 0.402680 -0.013530 -0.188030 
-1.591010 17.410840 -1.740570 -3.286839 14.729160 -3.421893 -14.967762 13.032670 3.194494 7.351011 -3.238180 -25.190863 -4.597045 7.573496 29.272537 -0.521322 5.465250 2.702437 0.456260 0.053200 0.271590 18.399997 -11.350055 2.856123 2.910347 1.563260 -8.643203 4.106640 -7.511993 32.547178 -0.657220 -5.358499 2.714484 0.133610 0.330840 0.124250 -4.395289 -0.662249 -7.732469 12.286706 -0.222706 19.086181 -9.861834 3.640254 12.091934 2.689170 -4.531022 -10.978195 -11.284961 -0.227834 38.323741 5.556190 -6.569220 -12.981250 -20.069213 -13.849101 4.146047 -41.720224 -19.578869 0.259512 -49.368253 -83.104987 35.483838 -3.645004 3.213250 0.623950 0.048640 -0.088350 0.275540 14.280751 18.282032 9.348470 39.316342 14.316640 -1.851131 84.147382 79.041841 53.275136 3.112508 -0.093508 -0.304820 0.395310 -0.012560 -0.195270 
-1.576010 17.361070 -1.697160 -3.367844 16.492594 -2.685058 -14.983761 12.981794 3.200956 7.374740 -3.445829 -25.231096 -4.830933 7.872683 30.198757 -0.483592 5.684501 2.635061 0.402350 -0.029320 0.251330 18.400355 -11.228554 2.912531 2.798158 2.670642 -11.370416 5.364906 -8.907181 37.580444 -0.772553 -6.039751 2.473810 0.085270 0.349970 0.126390 -4.418141 -0.721991 -7.809776 12.371665 -0.562812 18.559298 -9.881078 3.089630 10.481395 2.671450 -4.257846 -10.718072 -10.732021 -0.360879 38.301988 5.067580 -6.416490 -11.326610 -20.552331 -11.655797 3.893158 -44.929162 -16.722330 0.590012 -64.928121 -77.905392 44.853442 -3.781781 3.125150 0.632640 0.062800 -0.108560 0.260420 14.776013 15.768414 8.927808 43.881777 10.576659 -3.538800 84.147158 72.237063 48.298774 2.720435 -0.928689 -0.326260 0.384370 0.013890 -0.206240 
-1.565440 17.295040 -1.655870 -3.343806 17.660999 -2.043843 -14.994401 12.912091 3.165504 7.730534 -3.433308 -25.074908 -5.462597 8.254495 30.357257 -0.438253 5.826601 2.591522 0.363630 -0.083980 0.221770 18.412474 -11.063188 3.024123 2.392017 4.018923 -14.185731 6.564447 -10.622272 43.360412 -0.951290 -6.968176 2.166616 0.048530 0.367530 0.122950 -4.438478 -0.792168 -7.894023 12.383911 -0.705338 18.072696 -9.612808 2.699491 8.914049 2.410091 -4.452129 -10.281772 -11.149198 -0.306323 38.412359 5.136600 -6.747100 -9.730890 -20.813066 -9.193166 3.367662 -47.913142 -13.793213 -0.261867 -68.693550 -71.715040 43.539205 -3.769092 3.189989 0.625080 0.072030 -0.129230 0.256730 15.500943 13.314616 8.366874 47.614548 7.389868 -5.031924 80.261123 66.014205 41.545136 2.413341 -1.439015 -0.331810 0.373430 0.029650 -0.201960 
